<?xml version="1.0" standalone="no"?>
<svg viewBox="0 0 200 200" xmlns="http://www.w3.org/2000/svg">
  <path fill="#A64208" d="M32.5,-58.7C40.1,-45.6,43,-33.3,52.8,-21.3C62.7,-9.3,79.6,2.3,84.5,16.6C89.4,31,82.3,48.1,70.5,60.4C58.8,72.7,42.2,80.1,26.7,79.6C11.1,79,-3.5,70.4,-14.5,61.6C-25.5,52.8,-32.8,43.8,-44.4,35.6C-56,27.4,-71.9,20,-73.7,10.3C-75.5,0.6,-63.3,-11.4,-56,-24.8C-48.7,-38.3,-46.2,-53.2,-37.7,-65.9C-29.2,-78.6,-14.6,-89.1,-1.1,-87.4C12.4,-85.7,24.8,-71.8,32.5,-58.7Z" transform="translate(100 100)" />
</svg>
